# xmcd
#
# Track frame offsets:
#	150
#	10527
#	29060
#	37935
#	52155
#	72557
#	85950
#	100195
#	113985
#	125525
#	140502
#	158202
#	175500
#	188125
#	195742
#	209317
#	229915
#	241022
#
# Disc length: 3407 seconds
#
# Revision: 5
# Processed by: cddbd v1.5.2PL0 Copyright (c) Steve Scherf et al.
# Submitted via: EZCDAudioConverter 6.0.0.1
#
DISCID=f70d4d12
DTITLE=Elvis Presley - The Collection - Cd 6 - Elvis Country
DYEAR=2000
DGENRE=Country
TTITLE0=Snowbird
TTITLE1=Tomorrow Never Comes
TTITLE2=Little Cabin On The Hill
TTITLE3=Whole Lotta Shakin' Goin' On
TTITLE4=Funny How Time Slips Away
TTITLE5=I Really Don't Want To Know
TTITLE6=There Goes My Everything
TTITLE7=It's Your Baby, You Rock It
TTITLE8=The Fool
TTITLE9=Faded Love
TTITLE10=I Washed My Hands In Muddy Water
TTITLE11=Make The World Go Away
TTITLE12=It Ain't No Big Thing (But It's Growing)
TTITLE13=A Hundred Years From Now
TTITLE14=If I Where You
TTITLE15=Got My Mojo Working
TTITLE16=Where Did They Go, Lord
TTITLE17=I Was Born About Ten Thousand Years Ago
EXTD=
EXTT0=
EXTT1=
EXTT2=
EXTT3=
EXTT4=
EXTT5=
EXTT6=
EXTT7=
EXTT8=
EXTT9=
EXTT10=
EXTT11=
EXTT12=
EXTT13=
EXTT14=
EXTT15=
EXTT16=
EXTT17=
PLAYORDER=
